# xmcd
#
# Track frame offsets:
#	150
#	22157
#	34257
#	44405
#	75585
#	88962
#	123725
#	139065
#	151012
#	161335
#	180565
#	198815
#	219225
#	230885
#	248527
#	261465
#	276172
#	288562
#	322302
#
# Disc length: 4687 seconds
#
# Revision: 4
# Processed by: cddbd v1.5.2PL0 Copyright (c) Steve Scherf et al.
# Submitted via: EZCDAudioConverter 1.3.4.1
#
DISCID=19124d13
DTITLE=Incredible Bongo Band - Bongo Rock
DYEAR=1973
DGENRE=
TTITLE0=Apache
TTITLE1=Let There Be Drums
TTITLE2=Bongolia
TTITLE3=Last Bongo In Belgium
TTITLE4=Dueling Bongos
TTITLE5=In-A-Gadda-Da-Vida
TTITLE6=Raunchy '73
TTITLE7=Bongo Rock
TTITLE8=Kiburi (Part 1)
TTITLE9=Sing Sing Sing
TTITLE10=(I Can't Get No) Satisfaction
TTITLE11=Wipeout
TTITLE12=When The Bed Breaks Down, I'll Meet You In The Spring
TTITLE13=Pipeline
TTITLE14=Okey Dokey
TTITLE15=Sharp Nine
TTITLE16=Hang Down Your Head, Tom Dooley Your Tie's Caught In Your Zipper
TTITLE17=Apache [Grand Master Flash Remix]
TTITLE18=Last Bongo In Belgium [Breakers Mix]
EXTD=
EXTT0=
EXTT1=
EXTT2=
EXTT3=
EXTT4=
EXTT5=
EXTT6=
EXTT7=
EXTT8=
EXTT9=
EXTT10=
EXTT11=
EXTT12=
EXTT13=
EXTT14=
EXTT15=
EXTT16=
EXTT17=
EXTT18=
PLAYORDER=
